<svg xmlns="http://www.w3.org/2000/svg" width="1200" height="600" viewBox="0 0 1200 600" role="img" aria-labelledby="title desc">
  <title id="title">10 million point cold-render benchmark comparison</title>
  <desc id="desc">A grouped horizontal bar chart comparing xy, Matplotlib, and Plotly on a linear scale for a 900 by 420 pixel output. xy has the lowest measured time in static CPU PNG, interactive default GPU, and interactive CPU fallback. Lower times are better.</desc>
  <defs>
    <pattern id="grid-pattern" width="48" height="48" patternUnits="userSpaceOnUse">
      <path d="M 48 0 L 0 0 0 48" fill="none" stroke="#E8E8EC" stroke-width="1"/>
    </pattern>
    <filter id="card-shadow" x="-8%" y="-8%" width="116%" height="116%">
      <feDropShadow dx="0" dy="12" stdDeviation="16" flood-color="#1C2024" flood-opacity="0.06"/>
    </filter>
  </defs>

  <rect width="1200" height="600" fill="#FCFCFD"/>
  <rect width="1200" height="600" fill="url(#grid-pattern)" opacity="0.58"/>

  <g filter="url(#card-shadow)">
    <rect x="56" y="48" width="1088" height="504" rx="14" fill="#FFFFFF"/>
    <rect x="56.5" y="48.5" width="1087" height="503" rx="13.5" fill="none" stroke="#E8E8EC"/>
  </g>

  <g font-family="Instrument Sans, Inter, ui-sans-serif, system-ui, -apple-system, BlinkMacSystemFont, Segoe UI, sans-serif">
    <text x="96" y="112" fill="#1C2024" font-size="32" font-weight="650">10M-point cold-render time</text>
    <text x="96" y="138" fill="#60646C" font-size="16" font-weight="500">900×420 output · mean of three isolated runs · shared linear scale</text>

    <g transform="translate(775 94)" font-size="14" font-weight="600" fill="#1C2024">
      <rect x="-8" y="-5" width="16" height="10" rx="3" fill="#6E56CF"/>
      <text x="14" y="5">xy</text>
      <rect x="72" y="-5" width="16" height="10" rx="3" fill="#A8AAB3"/>
      <text x="96" y="5">Matplotlib</text>
      <rect x="184" y="-5" width="16" height="10" rx="3" fill="#C4C6CF"/>
      <text x="208" y="5">Plotly</text>
    </g>

    <g transform="translate(350 190)">
      <g stroke="#D9D9E0" stroke-width="1">
        <path d="M0 0V326"/>
        <path d="M144 0V326"/>
        <path d="M288 0V326"/>
        <path d="M432 0V326"/>
        <path d="M576 0V326"/>
        <path d="M720 0V326"/>
      </g>
      <g fill="#60646C" font-size="13" font-weight="500" text-anchor="middle">
        <text x="0" y="-12">0 s</text>
        <text x="144" y="-12">2 s</text>
        <text x="288" y="-12">4 s</text>
        <text x="432" y="-12">6 s</text>
        <text x="576" y="-12">8 s</text>
        <text x="720" y="-12">10 s</text>
      </g>
      <text x="360" y="-32" fill="#60646C" font-size="13" font-weight="600" text-anchor="middle">Render time (seconds) · Lower is better</text>
    </g>

    <g fill="#1C2024">
      <text x="96" y="258" font-size="15" font-weight="650">Static CPU PNG</text>
      <text x="96" y="378" font-size="15" font-weight="650">Interactive first render</text>
      <text x="96" y="400" fill="#60646C" font-size="14" font-weight="500">default GPU</text>
      <text x="96" y="498" font-size="15" font-weight="650">Interactive first render</text>
      <text x="96" y="520" fill="#60646C" font-size="14" font-weight="500">CPU fallback</text>
    </g>

    <g fill="#6E56CF">
      <rect x="350" y="225" width="3" height="18" rx="1.5"/>
      <rect x="350" y="345" width="13" height="18" rx="4"/>
      <rect x="350" y="465" width="71" height="18" rx="4"/>
    </g>
    <g fill="#C4C6CF">
      <rect x="350" y="277" width="690" height="18" rx="4"/>
      <rect x="350" y="397" width="262" height="18" rx="4"/>
      <rect x="350" y="517" width="591" height="18" rx="4"/>
    </g>
    <g fill="#A8AAB3">
      <rect x="350" y="251" width="200" height="18" rx="4"/>
      <rect x="350" y="371" width="216" height="18" rx="4"/>
      <rect x="350" y="491" width="265" height="18" rx="4"/>
    </g>

    <g fill="#1C2024" font-size="14" font-weight="650">
      <text x="366" y="239">0.0232 s</text>
      <text x="562" y="265">2.7842 s</text>
      <text x="1052" y="291">9.5834 s</text>
      <text x="377" y="359">0.1797 s</text>
      <text x="578" y="385">3.0029 s</text>
      <text x="624" y="411">3.6434 s</text>
      <text x="433" y="479">0.9920 s</text>
      <text x="627" y="505">3.6735 s</text>
      <text x="953" y="531">8.2152 s</text>
    </g>
  </g>
</svg>
